<svg width="125" height="26" viewBox="0 0 125 26" fill="none" xmlns="http://www.w3.org/2000/svg">
<g clip-path="url(#clip0_81_134)">
<path fill-rule="evenodd" clip-rule="evenodd" d="M10.3424 2.55646C4.63046 2.55646 0 7.18693 0 12.8989C0 18.6109 4.63047 23.2413 10.3424 23.2413H24.1324C25.2748 23.2413 26.2009 22.3153 26.2009 21.1729C26.2009 20.0305 25.2748 19.1044 24.1324 19.1044H10.3424C6.91526 19.1044 4.13698 16.3261 4.13698 12.8989C4.13698 9.47172 6.91526 6.69344 10.3424 6.69344H24.1324C25.2748 6.69344 26.2009 5.76734 26.2009 4.62495C26.2009 3.48255 25.2748 2.55646 24.1324 2.55646H10.3424ZM24.1323 14.9675C25.2747 14.9675 26.2008 14.0414 26.2008 12.899C26.2008 11.7566 25.2747 10.8305 24.1323 10.8305C22.9899 10.8305 22.0638 11.7566 22.0638 12.899C22.0638 14.0414 22.9899 14.9675 24.1323 14.9675Z" fill="url(#paint0_linear_81_134)"/>
<path d="M40.7046 15.8468L42.7697 16.9682C42.2664 17.6714 41.6262 18.2339 40.849 18.6558C40.0792 19.0777 39.2428 19.2887 38.3398 19.2887C37.3183 19.2887 36.3857 19.0259 35.5419 18.5004C34.7055 17.9749 34.0356 17.2717 33.5323 16.3909C33.0364 15.5027 32.7884 14.5219 32.7884 13.4487C32.7884 12.6345 32.9328 11.8758 33.2214 11.1726C33.5101 10.4621 33.9061 9.8403 34.4094 9.30737C34.9202 8.76705 35.5123 8.34514 36.1859 8.04167C36.8594 7.7382 37.5774 7.58646 38.3398 7.58646C39.2428 7.58646 40.0792 7.79741 40.849 8.21931C41.6262 8.64121 42.2664 9.20745 42.7697 9.91802L40.7046 11.0394C40.3938 10.6693 40.0311 10.388 39.6166 10.1956C39.2021 9.99574 38.7765 9.89582 38.3398 9.89582C37.7328 9.89582 37.1814 10.0624 36.6855 10.3954C36.197 10.7211 35.8084 11.1541 35.5197 11.6944C35.2384 12.2274 35.0978 12.8121 35.0978 13.4487C35.0978 14.0778 35.2421 14.6626 35.5308 15.2029C35.8195 15.7358 36.2081 16.1651 36.6966 16.4908C37.1925 16.8165 37.7402 16.9793 38.3398 16.9793C38.7987 16.9793 39.2354 16.8757 39.6499 16.6684C40.0644 16.4612 40.416 16.1873 40.7046 15.8468ZM44.4272 7.89734H46.7365V19H44.4272V7.89734ZM45.604 6.28745C45.2488 6.28745 44.9527 6.17272 44.7158 5.94327C44.479 5.71381 44.3605 5.42514 44.3605 5.07726C44.3605 4.73678 44.479 4.45181 44.7158 4.22235C44.9527 3.9855 45.2451 3.86707 45.5929 3.86707C45.9334 3.86707 46.2221 3.9855 46.4589 4.22235C46.6958 4.45181 46.8142 4.73678 46.8142 5.07726C46.8142 5.42514 46.6958 5.71381 46.4589 5.94327C46.2295 6.17272 45.9445 6.28745 45.604 6.28745ZM50.6623 24.5513H48.353V7.89734H50.6623V9.52943C51.0324 8.95949 51.5061 8.49688 52.0835 8.1416C52.6608 7.78631 53.3418 7.60867 54.1264 7.60867C54.9332 7.60867 55.6881 7.7604 56.3913 8.06388C57.1019 8.36735 57.7236 8.78925 58.2566 9.32958C58.7895 9.86251 59.2077 10.4806 59.5112 11.1837C59.8146 11.8869 59.9664 12.6419 59.9664 13.4487C59.9664 14.2555 59.8146 15.0141 59.5112 15.7247C59.2077 16.4353 58.7895 17.0607 58.2566 17.6011C57.7236 18.134 57.1019 18.5522 56.3913 18.8557C55.6881 19.1591 54.9332 19.3109 54.1264 19.3109C53.3418 19.3109 52.6608 19.1332 52.0835 18.7779C51.5061 18.4153 51.0324 17.9526 50.6623 17.3901V24.5513ZM54.1042 9.8403C53.4602 9.8403 52.894 10.0031 52.4055 10.3288C51.9169 10.6545 51.5358 11.0912 51.2619 11.6389C50.988 12.1793 50.8511 12.7825 50.8511 13.4487C50.8511 14.1148 50.988 14.7218 51.2619 15.2695C51.5358 15.8172 51.9169 16.2539 52.4055 16.5796C52.894 16.9053 53.4602 17.0681 54.1042 17.0681C54.7407 17.0681 55.3255 16.909 55.8584 16.5907C56.3913 16.265 56.8169 15.8283 57.1352 15.2806C57.4535 14.7329 57.6126 14.1222 57.6126 13.4487C57.6126 12.7899 57.4535 12.1867 57.1352 11.6389C56.8243 11.0912 56.4024 10.6545 55.8695 10.3288C55.3366 10.0031 54.7481 9.8403 54.1042 9.8403ZM71.6165 12.0386V19H69.3072V12.6049C69.3072 12.1089 69.1851 11.6574 68.9408 11.2503C68.7039 10.8432 68.382 10.5213 67.9749 10.2844C67.5752 10.0402 67.1237 9.91802 66.6203 9.91802C66.1318 9.91802 65.684 10.0402 65.2769 10.2844C64.8698 10.5213 64.5441 10.8432 64.2999 11.2503C64.0556 11.6574 63.9335 12.1089 63.9335 12.6049V19H61.6241V2.346H63.9335V9.07422C64.3184 8.61531 64.7921 8.25262 65.3546 7.98616C65.9172 7.71969 66.5241 7.58646 67.1755 7.58646C67.9971 7.58646 68.7446 7.78631 69.4182 8.18601C70.0918 8.5857 70.6247 9.12233 71.017 9.79589C71.4167 10.4695 71.6165 11.217 71.6165 12.0386ZM78.5011 19.2887C77.4796 19.2887 76.547 19.0259 75.7032 18.5004C74.8668 17.9749 74.1969 17.2717 73.6936 16.3909C73.1977 15.5027 72.9497 14.5219 72.9497 13.4487C72.9497 12.6345 73.0941 11.8758 73.3827 11.1726C73.6714 10.4621 74.0674 9.8403 74.5707 9.30737C75.0814 8.76705 75.6736 8.34514 76.3471 8.04167C77.0207 7.7382 77.7387 7.58646 78.5011 7.58646C79.3523 7.58646 80.1331 7.7641 80.8437 8.11939C81.5543 8.46727 82.1612 8.95209 82.6646 9.57384C83.1679 10.1882 83.538 10.8988 83.7748 11.7056C84.0117 12.5049 84.082 13.3561 83.9858 14.2592H75.4256C75.5218 14.7699 75.7069 15.2325 75.9808 15.647C76.262 16.0541 76.6173 16.3761 77.0466 16.6129C77.4833 16.8498 77.9681 16.9719 78.5011 16.9793C79.0636 16.9793 79.5743 16.8387 80.0332 16.5574C80.4995 16.2761 80.8807 15.8876 81.1768 15.3916L83.5195 15.9357C83.0754 16.9201 82.4055 17.7269 81.5099 18.356C80.6143 18.9778 79.6113 19.2887 78.5011 19.2887ZM75.3479 12.4938H81.6542C81.5802 11.9609 81.3915 11.4798 81.088 11.0505C80.7919 10.6138 80.4181 10.2696 79.9666 10.0179C79.5225 9.75888 79.034 9.62935 78.5011 9.62935C77.9755 9.62935 77.487 9.75518 77.0355 10.0068C76.5914 10.2585 76.2213 10.6027 75.9252 11.0394C75.6366 11.4687 75.4441 11.9535 75.3479 12.4938ZM85.8245 19V7.89734H88.1338V9.07422C88.5187 8.61531 88.9924 8.25262 89.555 7.98616C90.1175 7.71969 90.7245 7.58646 91.3758 7.58646C91.7903 7.58646 92.2011 7.64198 92.6082 7.753L91.6867 10.0846C91.398 9.97353 91.1093 9.91802 90.8207 9.91802C90.3322 9.91802 89.8844 10.0402 89.4773 10.2844C89.0702 10.5213 88.7445 10.8432 88.5002 11.2503C88.256 11.6574 88.1338 12.1089 88.1338 12.6049V19H85.8245ZM98.256 19.2887C97.2345 19.2887 96.3019 19.0259 95.4581 18.5004C94.6217 17.9749 93.9519 17.2717 93.4485 16.3909C92.9526 15.5027 92.7047 14.5219 92.7047 13.4487C92.7047 12.6345 92.849 11.8758 93.1377 11.1726C93.4263 10.4621 93.8223 9.8403 94.3256 9.30737C94.8364 8.76705 95.4285 8.34514 96.1021 8.04167C96.7756 7.7382 97.4936 7.58646 98.256 7.58646C99.1072 7.58646 99.8881 7.7641 100.599 8.11939C101.309 8.46727 101.916 8.95209 102.419 9.57384C102.923 10.1882 103.293 10.8988 103.53 11.7056C103.767 12.5049 103.837 13.3561 103.741 14.2592H95.1806C95.2768 14.7699 95.4618 15.2325 95.7357 15.647C96.017 16.0541 96.3722 16.3761 96.8015 16.6129C97.2382 16.8498 97.7231 16.9719 98.256 16.9793C98.8185 16.9793 99.3292 16.8387 99.7882 16.5574C100.254 16.2761 100.636 15.8876 100.932 15.3916L103.274 15.9357C102.83 16.9201 102.16 17.7269 101.265 18.356C100.369 18.9778 99.3663 19.2887 98.256 19.2887ZM95.1028 12.4938H101.409C101.335 11.9609 101.146 11.4798 100.843 11.0505C100.547 10.6138 100.173 10.2696 99.7215 10.0179C99.2774 9.75888 98.7889 9.62935 98.256 9.62935C97.7305 9.62935 97.2419 9.75518 96.7904 10.0068C96.3463 10.2585 95.9762 10.6027 95.6802 11.0394C95.3915 11.4687 95.1991 11.9535 95.1028 12.4938ZM105.579 19V7.89734H107.889V9.07422C108.274 8.61531 108.744 8.25262 109.299 7.98616C109.861 7.71969 110.468 7.58646 111.12 7.58646C111.912 7.58646 112.641 7.77891 113.307 8.1638C113.973 8.54129 114.502 9.04461 114.895 9.67376C115.287 9.04461 115.809 8.54129 116.46 8.1638C117.119 7.77891 117.844 7.58646 118.636 7.58646C119.458 7.58646 120.205 7.78631 120.879 8.18601C121.552 8.5857 122.089 9.12233 122.489 9.79589C122.888 10.4695 123.088 11.217 123.088 12.0386V19H120.779V12.6271C120.779 12.1386 120.661 11.6907 120.424 11.2836C120.187 10.8766 119.869 10.5472 119.469 10.2955C119.069 10.0439 118.625 9.91802 118.137 9.91802C117.648 9.91802 117.204 10.0364 116.804 10.2733C116.405 10.5102 116.086 10.8321 115.849 11.2392C115.613 11.6463 115.494 12.1089 115.494 12.6271V19H113.185V12.6271C113.185 12.1089 113.066 11.6463 112.829 11.2392C112.593 10.8321 112.271 10.5102 111.864 10.2733C111.464 10.0364 111.02 9.91802 110.531 9.91802C110.05 9.91802 109.606 10.0439 109.199 10.2955C108.799 10.5472 108.481 10.8766 108.244 11.2836C108.007 11.6907 107.889 12.1386 107.889 12.6271V19H105.579Z" fill="white"/>
</g>
<defs>
<linearGradient id="paint0_linear_81_134" x1="0" y1="2.55646" x2="20.6849" y2="23.2413" gradientUnits="userSpaceOnUse">
<stop stop-color="#01FFB3"/>
<stop offset="1" stop-color="#B062E8"/>
</linearGradient>
<clipPath id="clip0_81_134">
<rect width="124.122" height="25.7978" fill="white"/>
</clipPath>
</defs>
</svg>
