<svg width="24" height="25" viewBox="0 0 24 25" fill="none" xmlns="http://www.w3.org/2000/svg">
<path d="M9.75003 14.0239C9.75003 14.2464 9.68405 14.4639 9.56043 14.6489C9.43682 14.8339 9.26112 14.9781 9.05555 15.0633C8.84998 15.1484 8.62378 15.1707 8.40555 15.1273C8.18732 15.0839 7.98687 14.9767 7.82953 14.8194C7.6722 14.6621 7.56505 14.4616 7.52165 14.2434C7.47824 14.0252 7.50052 13.799 7.58567 13.5934C7.67081 13.3878 7.81501 13.2121 8.00001 13.0885C8.18502 12.9649 8.40253 12.8989 8.62503 12.8989C8.9234 12.8989 9.20955 13.0174 9.42053 13.2284C9.6315 13.4394 9.75003 13.7255 9.75003 14.0239ZM15.375 12.8989C15.1525 12.8989 14.935 12.9649 14.75 13.0885C14.565 13.2121 14.4208 13.3878 14.3357 13.5934C14.2505 13.799 14.2282 14.0252 14.2716 14.2434C14.3151 14.4616 14.4222 14.6621 14.5795 14.8194C14.7369 14.9767 14.9373 15.0839 15.1556 15.1273C15.3738 15.1707 15.6 15.1484 15.8055 15.0633C16.0111 14.9781 16.1868 14.8339 16.3104 14.6489C16.434 14.4639 16.5 14.2464 16.5 14.0239C16.5 13.7255 16.3815 13.4394 16.1705 13.2284C15.9595 13.0174 15.6734 12.8989 15.375 12.8989ZM22.3547 18.9833L16.0735 21.7686C15.8846 21.8526 15.6806 21.897 15.4739 21.8992C15.2672 21.9014 15.0622 21.8614 14.8716 21.7815C14.681 21.7016 14.5087 21.5835 14.3654 21.4346C14.2221 21.2857 14.1107 21.109 14.0382 20.9155L13.2778 18.853C12.8578 18.8811 12.4319 18.8955 12 18.8961C11.5682 18.8967 11.1422 18.8823 10.7222 18.853L9.96191 20.9155C9.88924 21.1089 9.77782 21.2855 9.63447 21.4343C9.49112 21.5832 9.31886 21.7012 9.12827 21.7811C8.93769 21.861 8.73279 21.9011 8.52615 21.8989C8.3195 21.8968 8.11548 21.8524 7.92659 21.7686L1.64534 18.9833C1.32114 18.8415 1.0578 18.5893 0.902246 18.2715C0.746691 17.9537 0.709028 17.591 0.795968 17.248L3.56253 6.33641C3.63554 6.05263 3.78972 5.79631 4.00619 5.59882C4.22266 5.40134 4.49202 5.27127 4.78128 5.22453L8.1619 4.66859C8.53459 4.60865 8.91624 4.68946 9.23264 4.89532C9.54904 5.10117 9.77757 5.41734 9.87378 5.78234L10.1794 6.98609C10.775 6.92797 11.3819 6.89891 12 6.89891C12.6182 6.89891 13.2244 6.92797 13.8188 6.98609L14.1244 5.78234C14.2204 5.41723 14.4489 5.10092 14.7654 4.89504C15.0818 4.68916 15.4636 4.60843 15.8363 4.66859L19.2188 5.22453C19.508 5.27127 19.7774 5.40134 19.9939 5.59882C20.2103 5.79631 20.3645 6.05263 20.4375 6.33641L23.206 17.247C23.293 17.5904 23.2552 17.9535 23.0993 18.2715C22.9434 18.5896 22.6795 18.8418 22.3547 18.9833ZM21.75 17.6127L18.9816 6.71141C18.9816 6.71141 18.9816 6.71141 18.9741 6.71141L15.5935 6.14891C15.591 6.14751 15.5883 6.14677 15.5855 6.14677C15.5827 6.14677 15.58 6.14751 15.5775 6.14891L15.3122 7.19328C15.781 7.28141 16.2497 7.3864 16.7025 7.51391C16.8811 7.55941 17.0366 7.66903 17.1395 7.82186C17.2423 7.9747 17.2854 8.16005 17.2603 8.34257C17.2353 8.52509 17.144 8.69201 17.0037 8.81151C16.8635 8.931 16.6842 8.9947 16.5 8.99047C16.4316 8.99027 16.3635 8.98081 16.2975 8.96234C14.8969 8.58227 13.4513 8.39275 12 8.39891C10.5488 8.39244 9.10325 8.58165 7.70253 8.9614C7.60684 8.99099 7.5062 9.0011 7.40654 8.99116C7.30688 8.98122 7.21023 8.95141 7.12227 8.90351C7.03432 8.8556 6.95685 8.79056 6.89444 8.71223C6.83203 8.6339 6.78594 8.54387 6.75888 8.44744C6.73183 8.351 6.72437 8.25013 6.73694 8.15077C6.7495 8.05141 6.78184 7.95557 6.83205 7.8689C6.88225 7.78224 6.94931 7.70651 7.02925 7.64619C7.1092 7.58586 7.20042 7.54216 7.29753 7.51766C7.7494 7.39016 8.21441 7.28516 8.68691 7.19703L8.42159 6.14891C8.42159 6.14891 8.42159 6.14891 8.41034 6.14891L5.02597 6.70484C5.02321 6.70408 5.02029 6.70408 5.01753 6.70484L2.25003 17.6173L8.53128 20.3989C8.53444 20.4006 8.53799 20.4015 8.54159 20.4015C8.5452 20.4015 8.54874 20.4006 8.55191 20.3989L9.18753 18.6852C8.55068 18.5877 7.92019 18.4525 7.29941 18.2802C7.1145 18.2211 6.95971 18.0926 6.86757 17.9218C6.77542 17.7509 6.75311 17.551 6.80531 17.364C6.85751 17.1771 6.98017 17.0176 7.14749 16.9192C7.31481 16.8208 7.51377 16.7912 7.70253 16.8364C9.10316 17.2166 10.5487 17.4058 12 17.3989C13.4513 17.4058 14.8969 17.2166 16.2975 16.8364C16.4891 16.7827 16.6942 16.8073 16.8676 16.9048C17.0411 17.0023 17.1687 17.1647 17.2224 17.3562C17.2761 17.5478 17.2515 17.7529 17.154 17.9263C17.0565 18.0998 16.8941 18.2274 16.7025 18.2811C16.0811 18.4532 15.45 18.5881 14.8125 18.6852L15.4453 20.3989C15.4484 20.4005 15.4517 20.4014 15.4552 20.4014C15.4586 20.4014 15.462 20.4005 15.465 20.3989L21.75 17.6127Z" fill="white" stroke="white" stroke-width="0.75"/>
</svg>
