<svg width="256" height="40" viewBox="0 0 256 40" fill="none" xmlns="http://www.w3.org/2000/svg">
<path fill-rule="evenodd" clip-rule="evenodd" d="M5.3112 19.916L0 25.5592L13.112 39.999L26.556 25.8911L21.0788 19.916L15.2697 20.082L13.444 22.0737L11.2863 19.916H5.3112ZM8.29899 23.2357L13.1123 28.5469L18.2575 23.4017L20.4152 25.7253L13.2782 33.1942L6.30729 25.3934L8.29899 23.2357Z" fill="#FDFDFD"/>
<path d="M0 14.1079L13.444 0L25.0622 12.9461L21.9087 16.0996L13.444 6.80498L6.30705 14.1079L13.278 21.9087L14.9378 20.083L11.6183 16.2656L14.9378 12.9461L21.4108 20.249L13.112 28.5477L0 14.1079Z" fill="url(#paint0_linear_870_5084)"/>
<path d="M38.6758 13.0273H51.2383C51.5586 13.0273 51.8359 13.1445 52.0703 13.3789C52.2969 13.6055 52.4102 13.8828 52.4102 14.2109C52.4102 14.5391 52.2969 14.8164 52.0703 15.043C51.8359 15.2695 51.5586 15.3828 51.2383 15.3828H46.3867V27.8164C46.3867 28.1445 46.2734 28.4258 46.0469 28.6602C45.8203 28.8867 45.543 29 45.2148 29C44.8867 29 44.6094 28.8867 44.3828 28.6602C44.1484 28.4258 44.0312 28.1445 44.0312 27.8164V15.3828H38.6758C38.3477 15.3828 38.0664 15.2695 37.832 15.043C37.6055 14.8164 37.4922 14.5391 37.4922 14.2109C37.4922 13.8828 37.6055 13.6055 37.832 13.3789C38.0664 13.1445 38.3477 13.0273 38.6758 13.0273ZM69.2148 17.6094C69.2148 19.1016 68.625 20.3086 67.4453 21.2305C68.625 22.293 69.2148 23.6172 69.2148 25.2031V27.8164C69.2148 28.1445 69.1016 28.4258 68.875 28.6602C68.6406 28.8867 68.3633 29 68.043 29C67.7148 29 67.4375 28.8867 67.2109 28.6602C66.9766 28.4258 66.8594 28.1445 66.8594 27.8164V25.2031C66.8594 24.375 66.5664 23.668 65.9805 23.082C65.3945 22.4883 64.6836 22.1914 63.8477 22.1914H55.4805C55.1523 22.1914 54.8711 22.0781 54.6367 21.8516C54.4102 21.6172 54.2969 21.3398 54.2969 21.0195C54.2969 20.6914 54.4102 20.4141 54.6367 20.1875C54.8711 19.9531 55.1523 19.8359 55.4805 19.8359H64.6328C65.25 19.8359 65.7734 19.6211 66.2031 19.1914C66.6406 18.7539 66.8594 18.2266 66.8594 17.6094C66.8594 17 66.6406 16.4766 66.2031 16.0391C65.7734 15.6016 65.25 15.3828 64.6328 15.3828H55.4805C55.1523 15.3828 54.8711 15.2695 54.6367 15.043C54.4102 14.8164 54.2969 14.5391 54.2969 14.2109C54.2969 13.8828 54.4102 13.6055 54.6367 13.3789C54.8711 13.1445 55.1523 13.0273 55.4805 13.0273H64.6328C65.8984 13.0273 66.9805 13.4766 67.8789 14.375C68.7695 15.2734 69.2148 16.3516 69.2148 17.6094ZM74.3359 25.7656C74.9297 26.3516 75.6406 26.6445 76.4688 26.6445C76.7969 26.6445 77.0742 26.7578 77.3008 26.9844C77.5273 27.2188 77.6406 27.4961 77.6406 27.8164C77.6406 28.1445 77.5273 28.4258 77.3008 28.6602C77.0742 28.8867 76.7969 29 76.4688 29C74.9922 29 73.7266 28.4766 72.6719 27.4297C71.625 26.375 71.1016 25.1094 71.1016 23.6328V14.2109C71.1016 13.8828 71.2148 13.6055 71.4414 13.3789C71.6758 13.1445 71.957 13.0273 72.2852 13.0273C72.6055 13.0273 72.8828 13.1445 73.1172 13.3789C73.3438 13.6055 73.457 13.8828 73.457 14.2109V23.6328C73.457 24.4609 73.75 25.1719 74.3359 25.7656ZM84.0156 13.3789C84.2422 13.1445 84.5195 13.0273 84.8477 13.0273C85.168 13.0273 85.4453 13.1445 85.6797 13.3789C85.9062 13.6055 86.0195 13.8828 86.0195 14.2109V23.6328C86.0195 25.1094 85.4961 26.375 84.4492 27.4297C83.4023 28.4766 82.1367 29 80.6523 29C80.332 29 80.0547 28.8867 79.8203 28.6602C79.5938 28.4258 79.4805 28.1445 79.4805 27.8164C79.4805 27.4961 79.5938 27.2188 79.8203 26.9844C80.0547 26.7578 80.332 26.6445 80.6523 26.6445C81.4883 26.6445 82.1992 26.3516 82.7852 25.7656C83.3711 25.1719 83.6641 24.4609 83.6641 23.6328V14.2109C83.6641 13.8828 83.7812 13.6055 84.0156 13.3789ZM89.0898 26.6445H101.652C101.973 26.6445 102.25 26.7578 102.484 26.9844C102.711 27.2188 102.824 27.4961 102.824 27.8164C102.824 28.1445 102.711 28.4258 102.484 28.6602C102.25 28.8867 101.973 29 101.652 29H89.0898C88.7617 29 88.4805 28.8867 88.2461 28.6602C88.0195 28.4258 87.9062 28.1445 87.9062 27.8164C87.9062 27.4961 88.0195 27.2188 88.2461 26.9844C88.4805 26.7578 88.7617 26.6445 89.0898 26.6445ZM101.652 15.3828H89.0898C88.7617 15.3828 88.4805 15.2695 88.2461 15.043C88.0195 14.8164 87.9062 14.5391 87.9062 14.2109C87.9062 13.8828 88.0195 13.6055 88.2461 13.3789C88.4805 13.1445 88.7617 13.0273 89.0898 13.0273H101.652C101.973 13.0273 102.25 13.1445 102.484 13.3789C102.711 13.6055 102.824 13.8828 102.824 14.2109C102.824 14.5391 102.711 14.8164 102.484 15.043C102.25 15.2695 101.973 15.3828 101.652 15.3828ZM89.0898 19.8359H101.652C101.973 19.8359 102.25 19.9531 102.484 20.1875C102.711 20.4141 102.824 20.6914 102.824 21.0195C102.824 21.3398 102.711 21.6172 102.484 21.8516C102.25 22.0781 101.973 22.1914 101.652 22.1914H89.0898C88.7617 22.1914 88.4805 22.0781 88.2461 21.8516C88.0195 21.6172 87.9062 21.3398 87.9062 21.0195C87.9062 20.6914 88.0195 20.4141 88.2461 20.1875C88.4805 19.9531 88.7617 19.8359 89.0898 19.8359Z" fill="#FDFDFD"/>
<path d="M115.917 21.2189C115.917 21.6316 115.563 21.9853 115.15 21.9853H109.698C109.256 21.9853 108.902 22.3389 108.902 22.7811V24.5789C108.902 24.9916 109.256 25.3453 109.698 25.3453H118.658C119.07 25.3453 119.424 25.6989 119.424 26.1411V28.2337C119.424 28.6463 119.07 29 118.658 29H106.043C105.601 29 105.247 28.6463 105.247 28.2337V22.6337C105.247 22.1916 105.601 21.8379 106.043 21.8379H107.988C108.43 21.8379 108.754 21.4842 108.754 21.0716V19.1263C108.754 18.6842 109.108 18.3305 109.55 18.3305H115.003C115.416 18.3305 115.769 17.9768 115.769 17.5642V15.7663C115.769 15.3242 115.416 14.9705 115.003 14.9705H106.043C105.601 14.9705 105.247 14.6168 105.247 14.2042V12.1116C105.247 11.6695 105.601 11.3158 106.043 11.3158H118.658C119.07 11.3158 119.424 11.6695 119.424 12.1116V17.7116C119.424 18.1242 119.07 18.4779 118.658 18.4779H116.712C116.27 18.4779 115.917 18.8316 115.917 19.2737V21.2189ZM132.12 14.8232C132.533 14.8232 132.886 14.4695 132.886 14.0568V12.1116C132.886 11.6695 133.24 11.3158 133.682 11.3158H135.775C136.187 11.3158 136.541 11.6695 136.541 12.1116V14.2042C136.541 14.6168 136.187 14.9705 135.775 14.9705H133.83C133.387 14.9705 133.034 15.3242 133.034 15.7663V17.7116C133.034 18.1242 132.68 18.4779 132.267 18.4779H130.322C129.88 18.4779 129.526 18.8316 129.526 19.2737V21.0716C129.526 21.4842 129.88 21.8379 130.322 21.8379H132.267C132.68 21.8379 133.034 22.1916 133.034 22.6337V24.5789C133.034 24.9916 133.387 25.3453 133.83 25.3453H135.775C136.187 25.3453 136.541 25.6989 136.541 26.1411V28.2337C136.541 28.6463 136.187 29 135.775 29H133.682C133.24 29 132.886 28.6463 132.886 28.2337V26.2589C132.886 25.8463 132.533 25.4926 132.12 25.4926H130.175C129.733 25.4926 129.379 25.1389 129.379 24.7263V22.7811C129.379 22.3389 129.025 21.9853 128.613 21.9853H126.815C126.373 21.9853 126.019 22.3389 126.019 22.7811V28.2337C126.019 28.6463 125.665 29 125.253 29H123.16C122.718 29 122.364 28.6463 122.364 28.2337V12.1116C122.364 11.6695 122.718 11.3158 123.16 11.3158H125.253C125.665 11.3158 126.019 11.6695 126.019 12.1116V17.5642C126.019 17.9768 126.373 18.3305 126.815 18.3305H128.613C129.025 18.3305 129.379 17.9768 129.379 17.5642V15.6189C129.379 15.1768 129.733 14.8232 130.175 14.8232H132.12Z" fill="url(#paint1_linear_870_5084)"/>
<path d="M161.347 10.664H149.923V16.424H159.587V20.456H149.923V29H145.731V6.6H161.347V10.664ZM176.508 27.4C175.324 28.712 173.66 29.512 171.516 29.512C166.748 29.512 163.388 25.672 163.388 20.904C163.388 16.136 166.748 12.52 171.516 12.52C173.66 12.52 175.324 13.256 176.476 14.504C177.148 15.208 177.276 16.52 177.596 17.448L178.268 17.224C177.98 16.296 177.404 15.176 177.404 14.216L177.372 13H181.308V29H177.372L177.404 27.688C177.404 26.728 177.98 25.576 178.268 24.68L177.564 24.456C177.276 25.352 177.148 26.664 176.508 27.4ZM167.324 20.904C167.324 23.592 169.084 25.864 171.74 25.864C174.364 25.864 176.124 23.528 176.22 20.904C176.22 18.088 174.652 16.168 171.74 16.168C169.084 16.168 167.324 18.184 167.324 20.904ZM195.599 28.008C194.287 29.288 193.071 29.48 190.863 29.48C187.727 29.48 184.687 27.592 184.687 23.976V13H188.623V21.448C188.623 24.776 190.127 26.024 192.271 26.024C194.607 26.024 196.527 24.616 196.527 21.448V13H200.431V29H196.527V28.36C196.559 27.496 197.135 26.504 197.423 25.672L196.751 25.416C196.463 26.248 196.239 27.4 195.599 28.008ZM203.359 20.904C203.359 15.688 206.815 12.52 211.999 12.52C217.279 12.52 220.095 15.784 220.415 18.76H216.223C216.127 18.44 215.007 16.2 211.903 16.2C209.023 16.2 207.263 17.992 207.231 20.872C207.231 23.72 209.087 25.768 212.031 25.8C215.071 25.8 216.223 23.56 216.319 23.208H220.511C219.999 26.344 217.279 29.48 212.159 29.512C206.879 29.48 203.359 26.12 203.359 20.904ZM232.31 29.512C225.814 29.512 222.326 25.672 222.326 20.904C222.326 16.136 226.134 12.52 231.542 12.52C237.11 12.52 240.566 16.424 240.534 20.84C240.534 21.16 240.534 21.928 240.502 22.216L227.03 22.184C227.03 23.944 228.63 26.152 231.926 26.152C234.07 26.152 235.382 25.224 235.702 24.424H240.182C239.702 26.088 237.334 29.512 232.31 29.512ZM227.03 19.56H235.958C235.958 17.352 234.326 15.624 231.638 15.624C228.918 15.624 227.03 17.544 227.03 19.56ZM245.846 23.624V16.424H242.646V13H245.846V6.952H249.75V13H253.91V16.424H249.75V23.624C249.75 24.968 250.358 25.352 251.862 25.352H253.75V29H249.878C246.87 29 245.846 26.184 245.846 23.624Z" fill="white"/>
<defs>
<linearGradient id="paint0_linear_870_5084" x1="1.6917" y1="6.4167" x2="25.0201" y2="11.3128" gradientUnits="userSpaceOnUse">
<stop stop-color="#82EB7C"/>
<stop offset="0.3749" stop-color="#27B782"/>
<stop offset="0.375" stop-color="#26B682"/>
<stop offset="1" stop-color="#6BD2C9"/>
</linearGradient>
<linearGradient id="paint1_linear_870_5084" x1="104.664" y1="16.961" x2="113.767" y2="36.7759" gradientUnits="userSpaceOnUse">
<stop stop-color="#82EB7C"/>
<stop offset="0.375" stop-color="#26B682"/>
<stop offset="1" stop-color="#6BD2C9"/>
</linearGradient>
</defs>
</svg>
