<svg width="25" height="25" viewBox="0 0 25 25" fill="none" xmlns="http://www.w3.org/2000/svg">
<path d="M20.5291 7.99391C20.7583 7.2544 20.8318 6.47542 20.745 5.70608C20.6582 4.93674 20.413 4.19373 20.0247 3.52391C19.9588 3.40987 19.8641 3.31517 19.7501 3.24935C19.636 3.18352 19.5067 3.14888 19.375 3.14891C18.5014 3.14708 17.6395 3.34959 16.8582 3.74027C16.0768 4.13094 15.3977 4.69895 14.875 5.39891H12.625C12.1023 4.69895 11.4232 4.13094 10.6418 3.74027C9.86047 3.34959 8.99857 3.14708 8.125 3.14891C7.99332 3.14888 7.86395 3.18352 7.7499 3.24935C7.63586 3.31517 7.54115 3.40987 7.47531 3.52391C7.08704 4.19373 6.84177 4.93674 6.75497 5.70608C6.66816 6.47542 6.74169 7.2544 6.97094 7.99391C6.50756 8.8027 6.25934 9.71682 6.25 10.6489V11.3989C6.25158 12.6679 6.71225 13.8935 7.54696 14.8493C8.38166 15.8052 9.53402 16.4267 10.7913 16.5992C10.2781 17.2559 9.99952 18.0655 10 18.8989V19.6489H7.75C7.15326 19.6489 6.58097 19.4119 6.15901 18.9899C5.73705 18.5679 5.5 17.9956 5.5 17.3989C5.5 16.9065 5.403 16.4188 5.21455 15.9638C5.02609 15.5089 4.74987 15.0955 4.40165 14.7473C4.05343 14.399 3.64003 14.1228 3.18506 13.9344C2.73009 13.7459 2.24246 13.6489 1.75 13.6489C1.55109 13.6489 1.36032 13.7279 1.21967 13.8686C1.07902 14.0092 1 14.2 1 14.3989C1 14.5978 1.07902 14.7886 1.21967 14.9292C1.36032 15.0699 1.55109 15.1489 1.75 15.1489C2.34674 15.1489 2.91903 15.386 3.34099 15.8079C3.76295 16.2299 4 16.8022 4 17.3989C4 18.3935 4.39509 19.3473 5.09835 20.0506C5.80161 20.7538 6.75544 21.1489 7.75 21.1489H10V22.6489C10 22.8478 10.079 23.0386 10.2197 23.1792C10.3603 23.3199 10.5511 23.3989 10.75 23.3989C10.9489 23.3989 11.1397 23.3199 11.2803 23.1792C11.421 23.0386 11.5 22.8478 11.5 22.6489V18.8989C11.5 18.3022 11.7371 17.7299 12.159 17.3079C12.581 16.886 13.1533 16.6489 13.75 16.6489C14.3467 16.6489 14.919 16.886 15.341 17.3079C15.7629 17.7299 16 18.3022 16 18.8989V22.6489C16 22.8478 16.079 23.0386 16.2197 23.1792C16.3603 23.3199 16.5511 23.3989 16.75 23.3989C16.9489 23.3989 17.1397 23.3199 17.2803 23.1792C17.421 23.0386 17.5 22.8478 17.5 22.6489V18.8989C17.5005 18.0655 17.2219 17.2559 16.7087 16.5992C17.966 16.4267 19.1183 15.8052 19.953 14.8493C20.7877 13.8935 21.2484 12.6679 21.25 11.3989V10.6489C21.2407 9.71682 20.9924 8.8027 20.5291 7.99391ZM19.75 11.3989C19.75 12.3935 19.3549 13.3473 18.6516 14.0506C17.9484 14.7538 16.9946 15.1489 16 15.1489H11.5C10.5054 15.1489 9.55161 14.7538 8.84835 14.0506C8.14509 13.3473 7.75 12.3935 7.75 11.3989V10.6489C7.7592 9.89893 7.98373 9.1674 8.39688 8.54141C8.47389 8.43989 8.52377 8.32043 8.54182 8.1943C8.55986 8.06816 8.54547 7.9395 8.5 7.82047C8.30465 7.31665 8.21063 6.77924 8.22334 6.23903C8.23605 5.69881 8.35523 5.16642 8.57406 4.67234C9.18786 4.73838 9.77892 4.9417 10.3034 5.26726C10.828 5.59281 11.2725 6.03224 11.6041 6.55297C11.6716 6.65863 11.7646 6.74566 11.8745 6.80609C11.9844 6.86653 12.1077 6.89844 12.2331 6.89891H15.2659C15.3918 6.89891 15.5157 6.86723 15.6261 6.80677C15.7366 6.74631 15.83 6.65903 15.8978 6.55297C16.2293 6.03219 16.6738 5.59273 17.1984 5.26717C17.7229 4.94161 18.314 4.73831 18.9278 4.67234C19.1463 5.16654 19.2652 5.699 19.2776 6.23921C19.29 6.77943 19.1956 7.31678 19 7.82047C18.9547 7.93836 18.9395 8.06571 18.9559 8.19096C18.9722 8.3162 19.0196 8.43537 19.0938 8.53766C19.511 9.16365 19.7388 9.89669 19.75 10.6489V11.3989Z" fill="white" stroke="white" stroke-width="0.75"/>
</svg>
