<svg width="24" height="25" viewBox="0 0 24 25" fill="none" xmlns="http://www.w3.org/2000/svg">
<path d="M23.1928 7.36203C23.1361 7.22498 23.04 7.10783 22.9166 7.02539C22.7933 6.94295 22.6483 6.89894 22.5 6.89891H19.6472C19.2483 6.22033 18.6807 5.65649 17.9994 5.26222C17.3181 4.86796 16.5465 4.65667 15.7594 4.64891C15.173 4.64122 14.591 4.75088 14.0476 4.97146C13.5042 5.19203 13.0104 5.51905 12.5953 5.93328C12.1681 6.35255 11.829 6.85301 11.5979 7.40524C11.3669 7.95746 11.2486 8.5503 11.25 9.14891V9.71984C7.47562 8.72422 4.38844 5.65391 4.35562 5.62109C4.255 5.51958 4.12747 5.44894 3.98805 5.41748C3.84862 5.38602 3.70311 5.39505 3.56865 5.44352C3.43419 5.49198 3.31637 5.57786 3.22908 5.69104C3.14179 5.80422 3.08866 5.93998 3.07594 6.08234C2.67187 10.5627 3.97312 13.5608 5.13844 15.2867C5.70663 16.1399 6.39786 16.9044 7.18969 17.5555C5.76187 19.1989 3.51375 20.0623 3.48937 20.0717C3.38354 20.1114 3.28804 20.1744 3.21 20.2561C3.13195 20.3379 3.07339 20.4362 3.03868 20.5437C3.00397 20.6513 2.99402 20.7653 3.00956 20.8772C3.0251 20.9892 3.06574 21.0961 3.12844 21.1902C3.19875 21.2952 3.48 21.6636 4.16719 22.0077C5.01656 22.4333 6.13875 22.6489 7.5 22.6489C14.1253 22.6489 19.6612 17.547 20.2266 10.9827L23.0306 8.17953C23.1355 8.07459 23.2069 7.9409 23.2357 7.79538C23.2646 7.64987 23.2497 7.49906 23.1928 7.36203ZM18.9741 10.1192C18.8455 10.2481 18.7682 10.4194 18.7566 10.6011C18.375 16.5158 13.4325 21.1489 7.5 21.1489C6.51 21.1489 5.8125 21.0177 5.32312 20.8602C6.40219 20.2742 7.90687 19.2664 8.87437 17.8152C8.93116 17.7298 8.96985 17.6338 8.98806 17.5329C9.00626 17.432 9.0036 17.3285 8.98023 17.2287C8.95686 17.1289 8.91328 17.0349 8.85218 16.9526C8.79109 16.8703 8.71377 16.8014 8.625 16.7502C8.58094 16.7248 4.50844 14.2808 4.5 7.75016C6 8.96891 8.74219 10.8598 11.8753 11.3867C11.9827 11.4048 12.0927 11.3993 12.1978 11.3706C12.3028 11.3419 12.4003 11.2907 12.4836 11.2204C12.5668 11.1502 12.6338 11.0627 12.6798 10.964C12.7258 10.8653 12.7497 10.7578 12.75 10.6489V9.14891C12.7492 8.74883 12.8283 8.35262 12.9829 7.9836C13.1375 7.61459 13.3643 7.28021 13.65 7.00016C13.9239 6.72575 14.25 6.50903 14.6091 6.36282C14.9682 6.21661 15.3529 6.14387 15.7406 6.14891C16.9275 6.16391 18.0366 6.88766 18.5006 7.94984C18.5591 8.08339 18.6553 8.19699 18.7773 8.27674C18.8994 8.35649 19.042 8.39895 19.1878 8.39891H20.6878L18.9741 10.1192Z" fill="white" stroke="white" stroke-width="0.75"/>
</svg>
