<svg width="24" height="25" viewBox="0 0 24 25" fill="none" xmlns="http://www.w3.org/2000/svg">
<path d="M16.82 21.1257L3.753 4.32567C3.68413 4.23698 3.64153 4.13074 3.63004 4.01904C3.61856 3.90733 3.63865 3.79465 3.68803 3.6938C3.73741 3.59295 3.81411 3.50798 3.90939 3.44856C4.00467 3.38914 4.11471 3.35765 4.227 3.35767H6.707C6.7983 3.3578 6.88836 3.37877 6.97033 3.41897C7.05229 3.45918 7.12401 3.51756 7.18 3.58967L20.247 20.3897C20.3159 20.4784 20.3585 20.5846 20.37 20.6963C20.3814 20.808 20.3614 20.9207 20.312 21.0215C20.2626 21.1224 20.1859 21.2073 20.0906 21.2668C19.9953 21.3262 19.8853 21.3577 19.773 21.3577H17.293C17.2017 21.3575 17.1116 21.3366 17.0297 21.2964C16.9477 21.2562 16.876 21.1978 16.82 21.1257Z" stroke="white" stroke-width="1.5"/>
<path d="M20 3.35767L4 21.3577" stroke="white" stroke-width="1.5" stroke-linecap="round"/>
</svg>
